<svg xmlns="http://www.w3.org/2000/svg" width="7.02in" height="6.83in" viewBox="0 0 505.29 491.75"><title>rose svg</title><g id="Layer_9" data-name="Layer 9"><polygon points="320.95 40.07 283.83 79.74 333.14 93.01 320.95 40.07" fill="#fff" stroke="#fff" stroke-miterlimit="10" stroke-width="0.38"/><polygon points="481.78 218.95 431.07 199.45 437.29 250.14 481.78 218.95" fill="#fff" stroke="#fff" stroke-miterlimit="10" stroke-width="0.38"/><polygon points="93.62 120.8 118.62 169.04 147.59 126.98 93.62 120.8" fill="#fff" stroke="#fff" stroke-miterlimit="10" stroke-width="0.38"/><polygon points="72.45 351.17 126.78 351.77 103.28 306.43 72.45 351.17" fill="#fff" stroke="#fff" stroke-miterlimit="10" stroke-width="0.38"/><polygon points="378.91 437.25 377.04 382.95 332.81 408.49 378.91 437.25" fill="#fff" stroke="#fff" stroke-miterlimit="10" stroke-width="0.38"/><polygon points="393.05 138.53 365.8 114.12 418.52 93.02 466.93 73.64 441.47 119.15 416 164.66 393.05 138.53" fill="#fff" stroke="#fff" stroke-miterlimit="10" stroke-width="0.41"/><polygon points="418.55 323.18 430.69 287.56 470.01 331.58 504.75 370.47 453.29 362.07 401.82 353.68 418.55 323.18" fill="#fff" stroke="#fff" stroke-miterlimit="10" stroke-width="0.41"/><polygon points="207.5 93.36 174.67 111.84 174.83 52.72 174.98 0.57 207.65 41.22 240.32 81.86 207.5 93.36" fill="#fff" stroke="#fff" stroke-miterlimit="10" stroke-width="0.41"/><polygon points="98.78 235.2 96.86 269.93 48.73 249.85 0.61 229.77 50.66 215.12 106.26 198.85 98.78 235.2" fill="#fff" stroke="#fff" stroke-miterlimit="10" stroke-width="0.41"/><polygon points="176.99 392.71 207.01 410.27 167.18 443.92 127.34 477.58 137.16 426.36 147.87 370.47 176.99 392.71" fill="#fff" stroke="#fff" stroke-miterlimit="10" stroke-width="0.41"/><polygon points="370.1 123.69 444.33 91.35 407.22 157.8 370.1 123.69" fill="#fff" stroke="#fff" stroke-miterlimit="10" stroke-width="0.41"/><polyline points="186.19 104.87 186.19 29.11 228.83 86.48 186.19 104.87" fill="#fff" stroke="#fff" stroke-miterlimit="10" stroke-width="0.41"/><polygon points="106.26 211.28 31.15 231.44 94.17 251.93 106.26 211.28" fill="#fff" stroke="#fff" stroke-miterlimit="10" stroke-width="0.41"/><polyline points="158.28 379.5 144.33 447.72 196.27 402.76 158.28 379.5" fill="#fff" stroke="#fff" stroke-miterlimit="10" stroke-width="0.41"/><polygon points="427.42 298.88 480.38 358.18 407.22 343.84 427.42 298.88" fill="#fff" stroke="#fff" stroke-miterlimit="10" stroke-width="0.41"/><path d="M340.75,452.38,341,446s-.06-13.89.85-32.14,5.5-38.58,18.5-66,25.42-48,28.84-74.16,1.75-51.84-8.84-70.34-23.58-34.25-42.5-43.16-46.5-12.17-66.66-8.67-49.42,12.08-68.34,39-17.31,52.17-17,66.5c.16,7,2.64,25.91,8,41.33,5.54,16,14,28.52,16,32.34,4,7.5,13.8,23.78,18.5,38.33,7.34,22.67,9.17,42.92,10,49.33s.78,29,.78,29l4.22,7.58,8.7-4S251.67,438,250.67,429s-4-39-7.67-55-12.5-31.67-24-52-17.23-37-19.33-50.33c-3.48-22-2.19-47.55,14.27-72.31s41.91-32.66,59.45-35.88,41.54-.23,58,8,27.77,22.7,37,39.72,10.65,40.63,7.68,64.7c0,0-3.38,24.46-14.38,46.8S346.33,348.83,340,366.33s-9.17,45.5-10,54.34-1,24.68-.25,28.76S340.75,452.38,340.75,452.38Z" transform="translate(-21.16 -42.41)" fill="#fff" stroke="#fff" stroke-miterlimit="10" stroke-width="0.38"/><path d="M240.64,454.91s-1.91,4.42,1.27,7.59a42.22,42.22,0,0,0,12.35,7.83c3.45,1.34,10.17,3,10.17,3s-10,.92-13.08,2.5-5.63,2.92-6.54,6.5a7.13,7.13,0,0,0,3.64,8.34c3,1.58,16.53,5.08,23.07,6,0,0-10.47,1.08-15.73,3s-9,3.75-10.61,6.33-2.27,5.75,2,8.5,9.81,4.17,13.62,5.17A117.21,117.21,0,0,0,275.15,522s-9.17.92-15.26,4.33-7.9,3.75-6.17,5.17,6.54,2.92,24.52,2.33,41.69-1.91,48.14-3.16,11.63-3.84,14.9-8.34.91-7.83-1.27-10-6.63-4.25-12.54-4.33a80.43,80.43,0,0,0-10.35.5s12.53-2.58,17.8-5.17,7.95-6.62,8-8.89-.7-4.77-5.79-7.44-17.44-2.08-22.16-2c0,0,11.71-3.33,18.53-6.17s7.63-5.16,7.81-9.33c.12-2.87-5-5.52-8.78-6.55s-19.56-2.37-20.83-2.62c0,0,12.35-.5,17.8-1.5s8.79-3,10.54-4.83-64.86,4.83-64.86,4.83l50,12L275.33,484.5,325.66,495l-49.6,12.33,52.5,10.5-55,12.5,36.15-11.66-48.32-9.34,40.51-13.16-41.42-12L307.31,472,257,458.83Z" transform="translate(-21.16 -42.41)" fill="#fff" stroke="#fff" stroke-miterlimit="10" stroke-width="0.4"/><path d="M251.92,447.69l31.58-2.36a34.92,34.92,0,0,1-6.33-6.5c-2.34-3.16-2-5-2-5s1.66-1.08,3-1.83,1.33-3.25,2.66-6.67,2.75-10.75,4.5-20.83,1-24.5,1-24.5c-1.69-2.33-6.48-5.83-6.48-5.83,1.5-1,3.84-4.34,3.84-4.34-.92-4.25-1.59-17.58-.67-23.5a119.12,119.12,0,0,0,1.33-13c.25-4-2.25-6.08-3-7S293,330.17,293,330.17s.83.66-.33,8.33-3.09,10.17-3,12c0,0,4.16,3.92,6.66,4.67,0,0-4.75,1.41-5.83,3.66a180.36,180.36,0,0,0,3.17,23.84,54.22,54.22,0,0,1,0,13c-.84,7.83-.84,3.33-1.67,13.33,0,0,5.5,3.58,8.33,4,0,0-6.66,2.83-7.5,5.5,0,0,1.09,9.17,4,13s10,4.33,15,5.83,17.45,3.34,17.45,3.34l9.22,7L285,460.17l-37.67-2.67,4.59-9.81" transform="translate(-21.16 -42.41)" fill="#fff" stroke="#fff" stroke-miterlimit="10" stroke-width="0.95"/></g><g id="Layer_11" data-name="Layer 11"><path d="M284,330.52A10.73,10.73,0,0,0,282,327a3.66,3.66,0,0,0-1.47-1.1,3.74,3.74,0,0,0-1.82-.17,24.11,24.11,0,0,1-4.32-.19,13.5,13.5,0,0,1-3.23-.87,17.59,17.59,0,0,1-4-2.41c-1.73-1.31-1.61-1.55-3.65-3.29a23.18,23.18,0,0,0-4.86-3.51,31,31,0,0,0-4.43-1.71,22.37,22.37,0,0,1-3.94-1.41,15.76,15.76,0,0,1-3.14-2.38c-1.68-1.48-2.51-2.24-2.41-3s1-1.3,2.15-1.9a18.23,18.23,0,0,1,3.68-1.27,27.51,27.51,0,0,1,5.16-1.23l.84-.08c2.64,0,4.66,1.28,5,2.9a2.88,2.88,0,0,1-.34,2,26.68,26.68,0,0,0,4.89,6.14,30,30,0,0,0,5.85,4.15,23.76,23.76,0,0,0,6.71,3c1.33.33,3.47.7,3.85.77,1.73.3,1.87.26,3.37.55a24.66,24.66,0,0,0,3.2.58,9.73,9.73,0,0,0,3.12-.35c-1.39-4.33-.76-6,0-6.75,1.61-1.54,4.2.59,8.5-1.08a23.66,23.66,0,0,0,4.72-2.83,16.39,16.39,0,0,0,3.13-2.58,10,10,0,0,0,2.2-3.52,9.6,9.6,0,0,0,.45-4.06,17.53,17.53,0,0,0-1-3.54c-.5-1.48-.94-2.69-1.25-3.55l-3.53,2.49a67,67,0,0,0,2.73-6.19c.82-2.18.39-1.38,2.39-7.72a64,64,0,0,0,1.36-7.16,2.75,2.75,0,0,0-.21-1.75c-.21-.38-.53-.7-1.91-1.43-1.18-.62-2.12-1-2.34-1.11-.75-.31-1.77-.71-3-1.14-8.15-2.82-13.72-2.34-17.42-1.25-1.73.52-4.58,1.62-5.92.34-1.12-1.08-1.21-3.85,0-5.59a4.08,4.08,0,0,1,.59-.66,10.14,10.14,0,0,1,3.14-3.18,9.44,9.44,0,0,1,5.1-1.58c2.53,0,2.63,1.2,6.52,1.89a11.8,11.8,0,0,1,3,.89,11.27,11.27,0,0,1,1.73,1,11.52,11.52,0,0,1,1.85,1.6c1,1,2,1,4.77,1.76a40.32,40.32,0,0,1,6.73,2.68,10.59,10.59,0,0,1,2.9,1.85,6.73,6.73,0,0,1,2,2.84,7.47,7.47,0,0,1,.2,3,21.09,21.09,0,0,1-.85,4.55,69.83,69.83,0,0,1-2.81,7.65c-.62,1.45-1.49,3.37-2.61,5.62a20.26,20.26,0,0,1,6.7,1.61,15.43,15.43,0,0,1,6.41,4.73,5.31,5.31,0,0,1,1.46,2.93c.14,2.29-2,4.11-3.55,5.42s-2.57,1.71-6.52,3.64-6.07,3-7.11,3.63a65.89,65.89,0,0,0-6.8,5.46c-2.81,2.42-3.48,3.14-6,5.19-2,1.62-3.61,2.88-4.68,3.68,0,1.13,0,2.37,0,3.69-.06,1.08-.17,2.08-.3,3Z" transform="translate(-21.16 -42.41)" fill="#fff" stroke="#fff" stroke-miterlimit="10" stroke-width="0.95"/></g><g id="Layer_12" data-name="Layer 12"><path d="M304.42,270.33a11.51,11.51,0,0,1,2.84,3.29,6.09,6.09,0,0,1,.89,1.77,6,6,0,0,1,.21,1.7c.06,2.2,0,3.26,0,3.26-.24,3.28-.35,4.92-.4,5.22-.18,1.26-.5,2.67-1.15,5.49-.3,1.27-.63,2.64-.72,3-.27,1.12-.51,2.05-.69,2.75l3.53-2.49c0,.81,0,2,0,3.33a35.15,35.15,0,0,1-.19,5.43,21,21,0,0,1-1.57,4.85,16,16,0,0,1-1.73,3.55c-2.46,3.12-6.85,3.5-7.09,3.52-2.88.2-4.21-1-5.61.11a4.27,4.27,0,0,0-1.39,2.79,6.37,6.37,0,0,0,.82,4.33c-2.64-.62-5-1.2-7-1.7-5.65-1.43-6.68-1.8-7.74-2.26a44.51,44.51,0,0,1-6.13-3.5,39.27,39.27,0,0,1-4.59-3.26c-1.1-.93-1-1-2.6-2.4-.6-.54-2.3-2-4.62-3.8-1-.78-2.32-1.72-3.84-2.73a18.69,18.69,0,0,0-1.89-2.86c-1-1.17-1.52-1.57-2.67-3.05-1.49-1.94-1.58-2.66-1.41-3.16a1.58,1.58,0,0,1,.75-.88c.32-.16.61-.13,1.91.15a6.92,6.92,0,0,0,1.89.32,4,4,0,0,0,1.57-.57,20.24,20.24,0,0,0,2.52-1.55L256,294.34c.67.4,1.67,1,2.9,1.71.8.45,2.36,1.35,4.43,2.45,2.43,1.3,2.6,1.3,3.66,2,.61.39,1.06.71,3,2.14,3,2.27,2.79,2.15,3.61,2.74a41.19,41.19,0,0,0,6,3.56,8.87,8.87,0,0,0,4.38,1.31,7.17,7.17,0,0,0,1.66-.22l12.75,1.5a13.89,13.89,0,0,0,1.8-3.34,10.91,10.91,0,0,0,.89-4.23c0-1.36-.33-1.29-1-4.71-.43-2.26-.4-2.89-.27-3.49a12.24,12.24,0,0,1,1.31-2.74,26.64,26.64,0,0,0,1.4-3.41,16.43,16.43,0,0,0,.43-8,10.47,10.47,0,0,0-.93-2.92,12.47,12.47,0,0,0-2.12-2.87,16.08,16.08,0,0,0-1.54-1.47L289.58,271h-6.33a4.85,4.85,0,0,0-3.54.86,3.92,3.92,0,0,0-1.63,2.66,3.86,3.86,0,0,0,.75,2.5,5.92,5.92,0,0,0,2.73,2c1.83.82,2.52.46,3.69,1.21a5.25,5.25,0,0,1,1.92,2.42,26.31,26.31,0,0,1-5.18,0,46.19,46.19,0,0,1-5.45-1,61.1,61.1,0,0,1-6.65-1.64,15.22,15.22,0,0,0-4.79-1.44c-.39,0-.72-.06-.93-.07a5.9,5.9,0,0,0,.53,2.59,13,13,0,0,0,1,1.53,21.14,21.14,0,0,1,1.43,2.83,28.14,28.14,0,0,1,1.18,2.92,24.58,24.58,0,0,1,1.05,4.55c-7.08-2-11.92-5.85-12.58-8.95a15.28,15.28,0,0,1-.25-3.48,9,9,0,0,1,1-4.38c1.09-1.83,2.23-1.37,4.21-3.61A20,20,0,0,0,263.9,269c.87-1.54,1-1.92,2.22-4.3,1.59-3,2-3.38,2.29-3.66a7.64,7.64,0,0,1,4-1.49,10.44,10.44,0,0,1,4.77.42,10,10,0,0,1,4.5,3.17,4.25,4.25,0,0,0-1.34,4.78c.87,1.78,3.31,1.94,3.64,2,1.58.1,2.16-.61,4.47-1.19a17.63,17.63,0,0,1,4.39-.49,33.46,33.46,0,0,1,7.65.94C303.32,269.7,303.9,270,304.42,270.33Z" transform="translate(-21.16 -42.41)" fill="#fff" stroke="#fff" stroke-miterlimit="10" stroke-width="0.95"/></g><g id="Layer_13" data-name="Layer 13"><path d="M285.58,310c-.3.16-.91-.73-2.58-1.67a13.84,13.84,0,0,0-3-1.16c-1.49-.5-2.05-1-5.42-3.41-1.8-1.27-4.43-3.11-7.07-4.75a28.77,28.77,0,0,0-4.55-2.59c-1-.44-2.46-.85-2.74-.94-1.16-.36-2.25-.64-2.89-.8s-1-.26-1.37-.34c.44-.87,3.2-1.87,2.33-3.34-1.2-2-1.74-8.82-1.74-8.82s3.52-3.55,5.24-2.39c3.51,2.36,6.18,10.95,7.5,13.13a6.51,6.51,0,0,0,1.21-2.64,7.69,7.69,0,0,0-.19-3.39,30,30,0,0,1-1-3.56c-.18-1.13-.08-1.46.11-1.58s.77.3,2,.77a13.17,13.17,0,0,0,1.79.46c.58.13,1.48.33,2.59.47a26.62,26.62,0,0,0,5.23.11c1.39-.11,1.67,0,2-.24a3.3,3.3,0,0,0,.91-3.58c-.45-1.36-1.44-1.28-2-2.75a5.27,5.27,0,0,1,0-3,7.43,7.43,0,0,1,1.6-3.14l5.91.16a6.79,6.79,0,0,1,1.85,2.92,6.58,6.58,0,0,1,.23,2.95,4,4,0,0,1-1.23,2.68,3.39,3.39,0,0,1-2.21.71c-.12,2.08.37,2.85.86,3.17.79.5,1.71-.08,2.75.5a3.13,3.13,0,0,1,1.34,1.78c-.72.39-1.74,1-2.95,1.66a41,41,0,0,0-4.87,3.08,24.51,24.51,0,0,0-2.76,2.48l8.21,1.7,2.08.43a7.47,7.47,0,0,0-3,.73,8.53,8.53,0,0,0-2.35,1.79,18.36,18.36,0,0,0-2,2.64c-.51.72-1.17,1.7-1.93,2.89C285.76,308.48,285.9,309.82,285.58,310Z" transform="translate(-21.16 -42.41)" fill="#fff" stroke="#fff" stroke-miterlimit="10" stroke-width="0.95"/></g><g id="Layer_14" data-name="Layer 14"><path d="M290.78,271.45a6.28,6.28,0,0,1,1.79,1.47,5.68,5.68,0,0,1,.65,4.31,5.6,5.6,0,0,1-1.77,3.54,2.51,2.51,0,0,1-1.55.82c-.8,0-1.22-.71-1.52-.53s-.32,1.33.28,1.92c.44.43.83.19,2.34.68a3.61,3.61,0,0,1,1.36.65,2.84,2.84,0,0,1,.81,1.39,3.8,3.8,0,0,1-.59,2,4.76,4.76,0,0,1-1,1,13.09,13.09,0,0,1-1.7,1.27,21.34,21.34,0,0,1-3.07,1.67,19.51,19.51,0,0,1-4.25,1.3L288,294l3.93.82.94.19c-.85,1-1.63,1.77-2.27,2.4a41.91,41.91,0,0,1-3.21,2.93c-.47.39-1.1.88-2.35,1.85l-1.88,1.44a9.85,9.85,0,0,1,1.46,2.21,11.59,11.59,0,0,1,.87,2.57,16,16,0,0,1,.33,2c2.33.08,4.78.23,7.33.47,1.79.17,3.51.38,5.17.61a23.15,23.15,0,0,0,.41-5.08,31.22,31.22,0,0,0-.58-4.72c-.45-2.48-.66-2.53-.88-4.33-.25-2-.39-3.25.09-4.69s1-1.42,1.74-3a12.18,12.18,0,0,0,1.07-4.75,22.69,22.69,0,0,0-.82-6.47c-.37-1.74-.75-3.16-1-4.12C292.43,271.88,290.83,271.33,290.78,271.45Z" transform="translate(-21.16 -42.41)" fill="#fff" stroke="#fff" stroke-miterlimit="10" stroke-width="0.95"/></g><g id="Layer_10" data-name="Layer 10"><path d="M231.55,444.7a161.76,161.76,0,1,1,53.94,10.18c.83,4,18.09,4.08,18.93,8.12,15.35.07,11.72,2,21.05-.14a170.44,170.44,0,0,0,28.83-9.49A178.7,178.7,0,0,0,385,436.32a181.15,181.15,0,0,0,31.87-27.95,174.25,174.25,0,0,0,28.6-43.1,170.76,170.76,0,0,0,13.28-45.73,174.55,174.55,0,0,0-3-66.23,172.6,172.6,0,0,0-277-92.66c-42,34.43-54.79,78.53-57.77,89.84a171.2,171.2,0,0,0-4,67c6.93,48.8,33.47,79.86,41.3,88.79a183.26,183.26,0,0,0,72.71,49.88,178.32,178.32,0,0,0,23.43,6.93l1.31-11.45A159.93,159.93,0,0,1,231.55,444.7Z" transform="translate(-21.16 -42.41)" fill="#fff" stroke="#fff" stroke-miterlimit="10" stroke-width="0.41"/></g></svg>