<svg xmlns="http://www.w3.org/2000/svg" width="7.02in" height="6.83in" viewBox="0 0 505.29 491.75"><title>rose</title><g id="Layer_9" data-name="Layer 9"><polygon points="320.95 40.07 283.83 79.74 333.14 93.01 320.95 40.07" stroke="#000" stroke-miterlimit="10" stroke-width="0.38"/><polygon points="481.78 218.95 431.07 199.45 437.29 250.14 481.78 218.95" stroke="#000" stroke-miterlimit="10" stroke-width="0.38"/><polygon points="93.62 120.8 118.62 169.04 147.59 126.98 93.62 120.8" stroke="#000" stroke-miterlimit="10" stroke-width="0.38"/><polygon points="72.45 351.17 126.78 351.77 103.28 306.43 72.45 351.17" stroke="#000" stroke-miterlimit="10" stroke-width="0.38"/><polygon points="378.91 437.25 377.04 382.95 332.81 408.49 378.91 437.25" stroke="#000" stroke-miterlimit="10" stroke-width="0.38"/><polygon points="393.05 138.53 365.8 114.12 418.52 93.02 466.93 73.64 441.47 119.15 416 164.66 393.05 138.53" stroke="#000" stroke-miterlimit="10" stroke-width="0.41"/><polygon points="418.55 323.18 430.69 287.56 470.01 331.58 504.75 370.47 453.29 362.07 401.82 353.68 418.55 323.18" stroke="#000" stroke-miterlimit="10" stroke-width="0.41"/><polygon points="207.5 93.36 174.67 111.84 174.83 52.72 174.98 0.57 207.65 41.22 240.32 81.86 207.5 93.36" stroke="#000" stroke-miterlimit="10" stroke-width="0.41"/><polygon points="98.78 235.2 96.86 269.93 48.73 249.85 0.61 229.77 50.66 215.12 106.26 198.85 98.78 235.2" stroke="#000" stroke-miterlimit="10" stroke-width="0.41"/><polygon points="176.99 392.71 207.01 410.27 167.18 443.92 127.34 477.58 137.16 426.36 147.87 370.47 176.99 392.71" stroke="#000" stroke-miterlimit="10" stroke-width="0.41"/><polygon points="370.1 123.69 444.33 91.35 407.22 157.8 370.1 123.69" fill="#fff" stroke="#000" stroke-miterlimit="10" stroke-width="0.41"/><polyline points="186.19 104.87 186.19 29.11 228.83 86.48 186.19 104.87" fill="#fff" stroke="#000" stroke-miterlimit="10" stroke-width="0.41"/><polygon points="106.26 211.28 31.15 231.44 94.17 251.93 106.26 211.28" fill="#fff" stroke="#000" stroke-miterlimit="10" stroke-width="0.41"/><polyline points="158.28 379.5 144.33 447.72 196.27 402.76 158.28 379.5" fill="#fff" stroke="#000" stroke-miterlimit="10" stroke-width="0.41"/><polygon points="427.42 298.88 480.38 358.18 407.22 343.84 427.42 298.88" fill="#fff" stroke="#000" stroke-miterlimit="10" stroke-width="0.41"/><path d="M340.75,452.38,341,446s-.06-13.89.85-32.14,5.5-38.58,18.5-66,25.42-48,28.84-74.16,1.75-51.84-8.84-70.34-23.58-34.25-42.5-43.16-46.5-12.17-66.66-8.67-49.42,12.08-68.34,39-17.31,52.17-17,66.5c.16,7,2.64,25.91,8,41.33,5.54,16,14,28.52,16,32.34,4,7.5,13.8,23.78,18.5,38.33,7.34,22.67,9.17,42.92,10,49.33s.78,29,.78,29l4.22,7.58,8.7-4S251.67,438,250.67,429s-4-39-7.67-55-12.5-31.67-24-52-17.23-37-19.33-50.33c-3.48-22-2.19-47.55,14.27-72.31s41.91-32.66,59.45-35.88,41.54-.23,58,8,27.77,22.7,37,39.72,10.65,40.63,7.68,64.7c0,0-3.38,24.46-14.38,46.8S346.33,348.83,340,366.33s-9.17,45.5-10,54.34-1,24.68-.25,28.76S340.75,452.38,340.75,452.38Z" transform="translate(-21.16 -42.41)" stroke="#000" stroke-miterlimit="10" stroke-width="0.38"/><path d="M240.64,454.91s-1.91,4.42,1.27,7.59a42.22,42.22,0,0,0,12.35,7.83c3.45,1.34,10.17,3,10.17,3s-10,.92-13.08,2.5-5.63,2.92-6.54,6.5a7.13,7.13,0,0,0,3.64,8.34c3,1.58,16.53,5.08,23.07,6,0,0-10.47,1.08-15.73,3s-9,3.75-10.61,6.33-2.27,5.75,2,8.5,9.81,4.17,13.62,5.17A117.21,117.21,0,0,0,275.15,522s-9.17.92-15.26,4.33-7.9,3.75-6.17,5.17,6.54,2.92,24.52,2.33,41.69-1.91,48.14-3.16,11.63-3.84,14.9-8.34.91-7.83-1.27-10-6.63-4.25-12.54-4.33a80.43,80.43,0,0,0-10.35.5s12.53-2.58,17.8-5.17,7.95-6.62,8-8.89-.7-4.77-5.79-7.44-17.44-2.08-22.16-2c0,0,11.71-3.33,18.53-6.17s7.63-5.16,7.81-9.33c.12-2.87-5-5.52-8.78-6.55s-19.56-2.37-20.83-2.62c0,0,12.35-.5,17.8-1.5s8.79-3,10.54-4.83-64.86,4.83-64.86,4.83l50,12L275.33,484.5,325.66,495l-49.6,12.33,52.5,10.5-55,12.5,36.15-11.66-48.32-9.34,40.51-13.16-41.42-12L307.31,472,257,458.83Z" transform="translate(-21.16 -42.41)" stroke="#000" stroke-miterlimit="10" stroke-width="0.4"/><path d="M251.92,447.69l31.58-2.36a34.92,34.92,0,0,1-6.33-6.5c-2.34-3.16-2-5-2-5s1.66-1.08,3-1.83,1.33-3.25,2.66-6.67,2.75-10.75,4.5-20.83,1-24.5,1-24.5c-1.69-2.33-6.48-5.83-6.48-5.83,1.5-1,3.84-4.34,3.84-4.34-.92-4.25-1.59-17.58-.67-23.5a119.12,119.12,0,0,0,1.33-13c.25-4-2.25-6.08-3-7s-4.66-.33-7.5-.83-6.08-2.25-7.33-3.83-4.75-3.84-7.67-6-6.41-1.59-9.16-3.67-4.92-3.67-5-5,2.08-1.92,5.83-3.17a23.09,23.09,0,0,1,6-1.31,64.7,64.7,0,0,1-5.67-6.19c-1.91-2.58-1.16-3.5,0-3.83s1.42.67,3,.67,4.5-2.17,4.5-2.17c-1.16-1.92-2-9.08-1.83-12.33s3.33-4.25,5.17-6.17,2.41-4.25,3.83-6.67,2.17-4.5,3.67-5.33a11.29,11.29,0,0,1,8-.5,8.94,8.94,0,0,1,4.5,3.17,34.51,34.51,0,0,1,3.5-3.5c2.33-2.09,5-1.5,9.33,0s6.17,1.58,6.67,2.5,2.83,2.5,5.83,3.16,10.42,3.5,12,6.5-.17,8.67-1.33,12-4.34,9.84-4.34,9.84a29,29,0,0,1,7.67,2c4,1.66,7.67,6.33,6.83,8.5s-3.5,5.08-10,7.83a41.12,41.12,0,0,0-14.16,9.33c-4.5,4.25-10.67,8.84-10.67,8.84s.83.66-.33,8.33-3.09,10.17-3,12c0,0,4.16,3.92,6.66,4.67,0,0-4.75,1.41-5.83,3.66a180.36,180.36,0,0,0,3.17,23.84,54.22,54.22,0,0,1,0,13c-.84,7.83-.84,3.33-1.67,13.33,0,0,5.5,3.58,8.33,4,0,0-6.66,2.83-7.5,5.5,0,0,1.09,9.17,4,13s10,4.33,15,5.83,17.45,3.34,17.45,3.34l9.22,7L285,460.17l-37.67-2.67,4.59-9.81" transform="translate(-21.16 -42.41)" stroke="#000" stroke-miterlimit="10" stroke-width="0.95"/><path d="M298.33,274.33s3.92,3.17,4.5,6.67a19.36,19.36,0,0,1-1,10.5c-1.33,3.17-2.41,2.67-2,6.33s1.88,6.09.9,8.84a23.55,23.55,0,0,1-2.4,4.83,25.59,25.59,0,0,0,0-9c-.91-4.35-2-8.19-.66-10.52s2.92-3.5,2.42-8.67A47.16,47.16,0,0,0,298.33,274.33Z" transform="translate(-21.16 -42.41)" fill="#fff" stroke="#000" stroke-miterlimit="10" stroke-width="0.95"/><path d="M258.67,303.67s4.75,7.37,7,9.52c.87.83,8.33,7.14,15.83,8.14s7.08,1.75,11.67,1.17c0,0-9.42-2.25-13.34-3.33s-8.33-4.32-11-6S258.67,303.67,258.67,303.67Z" transform="translate(-21.16 -42.41)" fill="#fff" stroke="#000" stroke-miterlimit="10"/><path d="M269.33,292.92a46.26,46.26,0,0,0-1.16-4.92,48.63,48.63,0,0,0-2.84-6s-2.5-3.25-1.16-3.5,7.16,2.25,9.33,2.5,9,2.58,13.67,1.67a57.48,57.48,0,0,1-8.17,1,27.83,27.83,0,0,1-7.54-1.15c-2-.58-2.79-1.77-2.13.81s1.17,3.5,1.34,5.5A7.32,7.32,0,0,1,269.33,292.92Z" transform="translate(-21.16 -42.41)" fill="#fff" stroke="#000" stroke-miterlimit="10"/><path d="M256,294.34a61.35,61.35,0,0,1,7,2.08c2.42,1,9.29,5.7,10.67,6.66s5.83,4.38,9.33,5.25,2.58,1.67,2.58,1.67a6.92,6.92,0,0,1-4.66-.42,57.4,57.4,0,0,1-9.67-5.91,32.24,32.24,0,0,0-6.92-4.67C261.67,297.75,256,294.34,256,294.34Z" transform="translate(-21.16 -42.41)" fill="#fff" stroke="#000" stroke-miterlimit="10" stroke-width="0.95"/><path d="M308.92,294.34s2.25,5.86,2.41,8.18-1.71,5.67-4,7.7-1.91,1.28-1.91,1.28,3-5.58,3.25-7.83S308.92,294.34,308.92,294.34Z" transform="translate(-21.16 -42.41)" fill="#fff" stroke="#000" stroke-miterlimit="10" stroke-width="0.95"/><path d="M304.42,270.33s6.87,2.29,7.41,4-2.1,14.35-6.44,22.5c0,0,2.72-10.66,2.77-12.91s.72-7.84-.41-9.59A31.86,31.86,0,0,0,304.42,270.33Z" transform="translate(-21.16 -42.41)" fill="#fff" stroke="#000" stroke-miterlimit="10" stroke-width="0.95"/><path d="M283.25,271s-3.58-.33-4.75,2.33-.25,3.21.92,4.17,3.33,2.67,5.83,2.75,1.92-1.33,1.92-1.33a3.66,3.66,0,0,1-2.17.58c-1.13-.12-3.42-2.17-3.29-3.88A17.4,17.4,0,0,1,283.25,271Z" transform="translate(-21.16 -42.41)" fill="#fff" stroke="#000" stroke-miterlimit="10" stroke-width="0.95"/><path d="M293.17,285.7s-9.4,5.05-10.58,7.22a44.28,44.28,0,0,0,5.35-1.75,21.42,21.42,0,0,0,4.39-3.17A3.66,3.66,0,0,0,293.17,285.7Z" transform="translate(-21.16 -42.41)" fill="#fff" stroke="#000" stroke-miterlimit="10" stroke-width="0.95"/><path d="M293.17,294.75a10.89,10.89,0,0,0-4.95,2.08c-1.89,1.67-5.05,6.84-5.05,6.84s5-3.8,6.08-4.84S293.17,294.75,293.17,294.75Z" transform="translate(-21.16 -42.41)" fill="#fff" stroke="#000" stroke-miterlimit="10" stroke-width="0.95"/><path d="M289.58,271s3.13.72,3.59,3.34-.17,5.54-2.25,6.84-3-.5-2.7-.92,1.29,1.21,2.51-1.25,1.31-3.08.85-4.67A10.86,10.86,0,0,0,289.58,271Z" transform="translate(-21.16 -42.41)" fill="#fff" stroke="#000" stroke-miterlimit="10" stroke-width="0.95"/></g><g id="Layer_10" data-name="Layer 10"><path d="M231.55,444.7a161.76,161.76,0,1,1,53.94,10.18c.83,4,18.09,4.08,18.93,8.12,15.35.07,11.72,2,21.05-.14a170.44,170.44,0,0,0,28.83-9.49A178.7,178.7,0,0,0,385,436.32a181.15,181.15,0,0,0,31.87-27.95,174.25,174.25,0,0,0,28.6-43.1,170.76,170.76,0,0,0,13.28-45.73,174.55,174.55,0,0,0-3-66.23,172.6,172.6,0,0,0-277-92.66c-42,34.43-54.79,78.53-57.77,89.84a171.2,171.2,0,0,0-4,67c6.93,48.8,33.47,79.86,41.3,88.79a183.26,183.26,0,0,0,72.71,49.88,178.32,178.32,0,0,0,23.43,6.93l1.31-11.45A159.93,159.93,0,0,1,231.55,444.7Z" transform="translate(-21.16 -42.41)" stroke="#000" stroke-miterlimit="10" stroke-width="0.41"/></g></svg>